<?xml version="1.0" standalone="no"?><svg xmlns="http://www.w3.org/2000/svg" viewBox="0 0 1440 320"><path fill="#0099ff" fill-opacity="1" d="M0,288L40,293.3C80,299,160,309,240,282.7C320,256,400,192,480,160C560,128,640,128,720,160C800,192,880,256,960,250.7C1040,245,1120,171,1200,149.3C1280,128,1360,160,1400,176L1440,192L1440,320L1400,320C1360,320,1280,320,1200,320C1120,320,1040,320,960,320C880,320,800,320,720,320C640,320,560,320,480,320C400,320,320,320,240,320C160,320,80,320,40,320L0,320Z"></path></svg>