<?xml version="1.0" standalone="no"?><svg xmlns="http://www.w3.org/2000/svg" viewBox="0 0 1440 320"><path fill="#0099ff" fill-opacity="1" d="M0,224L24,192C48,160,96,96,144,101.3C192,107,240,181,288,213.3C336,245,384,235,432,192C480,149,528,75,576,69.3C624,64,672,128,720,149.3C768,171,816,149,864,133.3C912,117,960,107,1008,133.3C1056,160,1104,224,1152,224C1200,224,1248,160,1296,149.3C1344,139,1392,181,1416,202.7L1440,224L1440,320L1416,320C1392,320,1344,320,1296,320C1248,320,1200,320,1152,320C1104,320,1056,320,1008,320C960,320,912,320,864,320C816,320,768,320,720,320C672,320,624,320,576,320C528,320,480,320,432,320C384,320,336,320,288,320C240,320,192,320,144,320C96,320,48,320,24,320L0,320Z"></path></svg>